<mxfile host="app.diagrams.net" agent="Mozilla/5.0 (Macintosh; Intel Mac OS X 10_15_7) AppleWebKit/537.36 (KHTML, like Gecko) Chrome/138.0.0.0 Safari/537.36" version="27.2.0">
  <diagram name="Page-1" id="MANn_eCQJaaNg--_7yYR">
    <mxGraphModel dx="1543" dy="1388" grid="1" gridSize="10" guides="1" tooltips="1" connect="1" arrows="1" fold="1" page="0" pageScale="1" pageWidth="1100" pageHeight="850" math="0" shadow="0">
      <root>
        <mxCell id="0" />
        <mxCell id="1" parent="0" />
        <mxCell id="0Vz99gIBaLWl-0_W3tyk-63" value="" style="rounded=0;whiteSpace=wrap;html=1;strokeColor=default;align=center;verticalAlign=middle;fontFamily=Helvetica;fontSize=12;fontColor=default;labelBorderColor=none;labelBackgroundColor=default;fillColor=default;" vertex="1" parent="1">
          <mxGeometry x="150" y="-310" width="560" height="380" as="geometry" />
        </mxCell>
        <mxCell id="0Vz99gIBaLWl-0_W3tyk-40" value="" style="rounded=0;whiteSpace=wrap;html=1;strokeColor=default;align=left;verticalAlign=top;fontFamily=Helvetica;fontSize=11;fontColor=default;labelBorderColor=default;labelBackgroundColor=default;fillColor=default;" vertex="1" parent="1">
          <mxGeometry y="130" width="1260" height="800" as="geometry" />
        </mxCell>
        <mxCell id="0Vz99gIBaLWl-0_W3tyk-2" value="&lt;p style=&quot;margin:0px;margin-top:4px;text-align:center;&quot;&gt;&lt;b&gt;ATMState&lt;/b&gt;&lt;/p&gt;&lt;hr size=&quot;1&quot; style=&quot;border-style:solid;&quot;&gt;&lt;p style=&quot;margin:0px;margin-left:4px;&quot;&gt;&lt;br&gt;&lt;/p&gt;&lt;hr size=&quot;1&quot; style=&quot;border-style:solid;&quot;&gt;&lt;p style=&quot;margin:0px;margin-left:4px;&quot;&gt;+ insertCard(ATM atm, Card card)&lt;/p&gt;&lt;p style=&quot;margin:0px;margin-left:4px;&quot;&gt;+ authenticatPin(ATM atm, Card card, int pin)&lt;/p&gt;&lt;p style=&quot;margin:0px;margin-left:4px;&quot;&gt;+ selectOperation(ATM atm, Card card, TransactionType txnType)&lt;/p&gt;&lt;p style=&quot;margin:0px;margin-left:4px;&quot;&gt;+ cashWithdrawal(ATM atm, Card card, int withdrawAmount)&lt;/p&gt;&lt;p style=&quot;margin:0px;margin-left:4px;&quot;&gt;+ displayBalance(ATM atm, Card card)&lt;/p&gt;&lt;p style=&quot;margin:0px;margin-left:4px;&quot;&gt;+ returnCard()&lt;/p&gt;&lt;p style=&quot;margin:0px;margin-left:4px;&quot;&gt;+ exit(ATM atm)&lt;/p&gt;" style="verticalAlign=top;align=left;overflow=fill;html=1;whiteSpace=wrap;" vertex="1" parent="1">
          <mxGeometry x="460" y="330" width="360" height="170" as="geometry" />
        </mxCell>
        <mxCell id="0Vz99gIBaLWl-0_W3tyk-8" style="rounded=0;orthogonalLoop=1;jettySize=auto;html=1;entryX=0.25;entryY=1;entryDx=0;entryDy=0;endArrow=block;endFill=0;" edge="1" parent="1" source="0Vz99gIBaLWl-0_W3tyk-3" target="0Vz99gIBaLWl-0_W3tyk-2">
          <mxGeometry relative="1" as="geometry" />
        </mxCell>
        <mxCell id="0Vz99gIBaLWl-0_W3tyk-3" value="&lt;p style=&quot;margin:0px;margin-top:4px;text-align:center;&quot;&gt;&lt;b&gt;IdleState&lt;/b&gt;&lt;/p&gt;&lt;hr size=&quot;1&quot; style=&quot;border-style:solid;&quot;&gt;&lt;p style=&quot;margin:0px;margin-left:4px;&quot;&gt;&lt;br&gt;&lt;/p&gt;&lt;hr size=&quot;1&quot; style=&quot;border-style:solid;&quot;&gt;&lt;p style=&quot;margin:0px;margin-left:4px;&quot;&gt;+ insertCard(ATM atm, Card card)&lt;/p&gt;" style="verticalAlign=top;align=left;overflow=fill;html=1;whiteSpace=wrap;" vertex="1" parent="1">
          <mxGeometry x="270" y="570" width="210" height="90" as="geometry" />
        </mxCell>
        <mxCell id="0Vz99gIBaLWl-0_W3tyk-9" value="" style="edgeStyle=none;shape=connector;rounded=0;orthogonalLoop=1;jettySize=auto;html=1;strokeColor=default;align=center;verticalAlign=middle;fontFamily=Helvetica;fontSize=11;fontColor=default;labelBackgroundColor=default;endArrow=block;endFill=0;exitX=0;exitY=0.5;exitDx=0;exitDy=0;" edge="1" parent="1" source="0Vz99gIBaLWl-0_W3tyk-4" target="0Vz99gIBaLWl-0_W3tyk-2">
          <mxGeometry relative="1" as="geometry" />
        </mxCell>
        <mxCell id="0Vz99gIBaLWl-0_W3tyk-4" value="&lt;p style=&quot;margin:0px;margin-top:4px;text-align:center;&quot;&gt;&lt;b&gt;HasCardState&lt;/b&gt;&lt;/p&gt;&lt;hr size=&quot;1&quot; style=&quot;border-style:solid;&quot;&gt;&lt;p style=&quot;margin:0px;margin-left:4px;&quot;&gt;&lt;br&gt;&lt;/p&gt;&lt;hr size=&quot;1&quot; style=&quot;border-style:solid;&quot;&gt;&lt;p style=&quot;margin:0px;margin-left:4px;&quot;&gt;&lt;span style=&quot;background-color: transparent; color: light-dark(rgb(0, 0, 0), rgb(255, 255, 255));&quot;&gt;+ authenticatPin(ATM atm, Card card, int pin)&lt;/span&gt;&lt;/p&gt;&lt;p style=&quot;margin:0px;margin-left:4px;&quot;&gt;&lt;span style=&quot;background-color: transparent; color: light-dark(rgb(0, 0, 0), rgb(255, 255, 255));&quot;&gt;+ returnCard()&lt;/span&gt;&lt;/p&gt;&lt;p style=&quot;margin:0px;margin-left:4px;&quot;&gt;+ exit(ATM atm)&lt;/p&gt;" style="verticalAlign=top;align=left;overflow=fill;html=1;whiteSpace=wrap;" vertex="1" parent="1">
          <mxGeometry x="890" y="300" width="260" height="110" as="geometry" />
        </mxCell>
        <mxCell id="0Vz99gIBaLWl-0_W3tyk-10" value="" style="edgeStyle=none;shape=connector;rounded=0;orthogonalLoop=1;jettySize=auto;html=1;strokeColor=default;align=center;verticalAlign=middle;fontFamily=Helvetica;fontSize=11;fontColor=default;labelBackgroundColor=default;endArrow=block;endFill=0;" edge="1" parent="1" source="0Vz99gIBaLWl-0_W3tyk-5" target="0Vz99gIBaLWl-0_W3tyk-2">
          <mxGeometry relative="1" as="geometry" />
        </mxCell>
        <mxCell id="0Vz99gIBaLWl-0_W3tyk-5" value="&lt;p style=&quot;margin:0px;margin-top:4px;text-align:center;&quot;&gt;&lt;b&gt;SelectOperationState&lt;/b&gt;&lt;/p&gt;&lt;hr size=&quot;1&quot; style=&quot;border-style:solid;&quot;&gt;&lt;p style=&quot;margin:0px;margin-left:4px;&quot;&gt;&lt;br&gt;&lt;/p&gt;&lt;hr size=&quot;1&quot; style=&quot;border-style:solid;&quot;&gt;&lt;p style=&quot;margin:0px;margin-left:4px;&quot;&gt;&lt;span style=&quot;background-color: transparent; color: light-dark(rgb(0, 0, 0), rgb(255, 255, 255));&quot;&gt;+ selectOperation(ATM atm, Card card, TransactionType txnType)&lt;/span&gt;&lt;/p&gt;&lt;p style=&quot;margin:0px;margin-left:4px;&quot;&gt;+ returnCard()&lt;/p&gt;&lt;p style=&quot;margin:0px;margin-left:4px;&quot;&gt;+ exit(ATM atm)&lt;/p&gt;" style="verticalAlign=top;align=left;overflow=fill;html=1;whiteSpace=wrap;" vertex="1" parent="1">
          <mxGeometry x="880" y="470" width="360" height="120" as="geometry" />
        </mxCell>
        <mxCell id="0Vz99gIBaLWl-0_W3tyk-11" value="" style="edgeStyle=none;shape=connector;rounded=0;orthogonalLoop=1;jettySize=auto;html=1;strokeColor=default;align=center;verticalAlign=middle;fontFamily=Helvetica;fontSize=11;fontColor=default;labelBackgroundColor=default;endArrow=block;endFill=0;" edge="1" parent="1" source="0Vz99gIBaLWl-0_W3tyk-6" target="0Vz99gIBaLWl-0_W3tyk-2">
          <mxGeometry relative="1" as="geometry" />
        </mxCell>
        <mxCell id="0Vz99gIBaLWl-0_W3tyk-6" value="&lt;p style=&quot;margin:0px;margin-top:4px;text-align:center;&quot;&gt;&lt;b&gt;CashWithdrawalState&lt;/b&gt;&lt;/p&gt;&lt;hr size=&quot;1&quot; style=&quot;border-style:solid;&quot;&gt;&lt;p style=&quot;margin:0px;margin-left:4px;&quot;&gt;+&amp;nbsp;&lt;span style=&quot;background-color: transparent; color: light-dark(rgb(0, 0, 0), rgb(255, 255, 255)); text-align: center;&quot;&gt;CashWithdrawalProcessor c&lt;/span&gt;&lt;span style=&quot;text-align: center; background-color: transparent; color: light-dark(rgb(0, 0, 0), rgb(255, 255, 255));&quot;&gt;ashWithdrawalProcessor;&lt;/span&gt;&lt;/p&gt;&lt;hr size=&quot;1&quot; style=&quot;border-style:solid;&quot;&gt;&lt;p style=&quot;margin:0px;margin-left:4px;&quot;&gt;&lt;span style=&quot;background-color: transparent; color: light-dark(rgb(0, 0, 0), rgb(255, 255, 255));&quot;&gt;+ cashWithdrawal(ATM atm, Card card, int withdrawAmount)&lt;/span&gt;&lt;/p&gt;&lt;p style=&quot;margin:0px;margin-left:4px;&quot;&gt;+ returnCard()&lt;/p&gt;&lt;p style=&quot;margin:0px;margin-left:4px;&quot;&gt;+ exit(ATM atm)&lt;/p&gt;" style="verticalAlign=top;align=left;overflow=fill;html=1;whiteSpace=wrap;" vertex="1" parent="1">
          <mxGeometry x="520" y="560" width="330" height="120" as="geometry" />
        </mxCell>
        <mxCell id="0Vz99gIBaLWl-0_W3tyk-7" value="&lt;p style=&quot;margin:0px;margin-top:4px;text-align:center;&quot;&gt;&lt;b&gt;CheckBalanceState&lt;/b&gt;&lt;/p&gt;&lt;hr size=&quot;1&quot; style=&quot;border-style:solid;&quot;&gt;&lt;p style=&quot;margin:0px;margin-left:4px;&quot;&gt;&lt;br&gt;&lt;/p&gt;&lt;hr size=&quot;1&quot; style=&quot;border-style:solid;&quot;&gt;&lt;p style=&quot;margin:0px;margin-left:4px;&quot;&gt;&lt;span style=&quot;background-color: transparent; color: light-dark(rgb(0, 0, 0), rgb(255, 255, 255));&quot;&gt;+ displayBalance(ATM atm, Card card)&lt;/span&gt;&lt;/p&gt;&lt;p style=&quot;margin:0px;margin-left:4px;&quot;&gt;+ returnCard()&lt;/p&gt;&lt;p style=&quot;margin:0px;margin-left:4px;&quot;&gt;+ exit(ATM atm)&lt;/p&gt;" style="verticalAlign=top;align=left;overflow=fill;html=1;whiteSpace=wrap;" vertex="1" parent="1">
          <mxGeometry x="720" y="150" width="360" height="120" as="geometry" />
        </mxCell>
        <mxCell id="0Vz99gIBaLWl-0_W3tyk-12" style="edgeStyle=none;shape=connector;rounded=0;orthogonalLoop=1;jettySize=auto;html=1;entryX=0.814;entryY=0.013;entryDx=0;entryDy=0;entryPerimeter=0;strokeColor=default;align=center;verticalAlign=middle;fontFamily=Helvetica;fontSize=11;fontColor=default;labelBackgroundColor=default;endArrow=block;endFill=0;" edge="1" parent="1" source="0Vz99gIBaLWl-0_W3tyk-7" target="0Vz99gIBaLWl-0_W3tyk-2">
          <mxGeometry relative="1" as="geometry" />
        </mxCell>
        <mxCell id="0Vz99gIBaLWl-0_W3tyk-27" value="" style="edgeStyle=none;shape=connector;rounded=0;orthogonalLoop=1;jettySize=auto;html=1;strokeColor=default;align=center;verticalAlign=middle;fontFamily=Helvetica;fontSize=11;fontColor=default;labelBorderColor=default;labelBackgroundColor=default;endArrow=classic;" edge="1" parent="1" source="0Vz99gIBaLWl-0_W3tyk-13" target="0Vz99gIBaLWl-0_W3tyk-26">
          <mxGeometry relative="1" as="geometry" />
        </mxCell>
        <mxCell id="0Vz99gIBaLWl-0_W3tyk-13" value="&lt;p style=&quot;margin:0px;margin-top:4px;text-align:center;&quot;&gt;&lt;b&gt;ATM&lt;/b&gt;&lt;/p&gt;&lt;hr size=&quot;1&quot; style=&quot;border-style:solid;&quot;&gt;&lt;p style=&quot;margin:0px;margin-left:4px;&quot;&gt;+ ATMState atmState&lt;/p&gt;&lt;p style=&quot;margin:0px;margin-left:4px;&quot;&gt;+ int atmBalance&lt;/p&gt;&lt;p style=&quot;margin:0px;margin-left:4px;&quot;&gt;+ int noOfTwoThousandNotes&lt;/p&gt;&lt;p style=&quot;margin:0px;margin-left:4px;&quot;&gt;+ int noOfFiveHundredNotes&lt;/p&gt;&lt;p style=&quot;margin:0px;margin-left:4px;&quot;&gt;+ int noOfOneHundredNotes&lt;/p&gt;" style="verticalAlign=top;align=left;overflow=fill;html=1;whiteSpace=wrap;fontFamily=Helvetica;fontSize=11;fontColor=default;labelBackgroundColor=default;labelBorderColor=default;" vertex="1" parent="1">
          <mxGeometry x="360" y="150" width="190" height="110" as="geometry" />
        </mxCell>
        <mxCell id="0Vz99gIBaLWl-0_W3tyk-28" style="edgeStyle=none;shape=connector;rounded=0;orthogonalLoop=1;jettySize=auto;html=1;entryX=0.75;entryY=1;entryDx=0;entryDy=0;strokeColor=default;align=center;verticalAlign=middle;fontFamily=Helvetica;fontSize=11;fontColor=default;labelBorderColor=default;labelBackgroundColor=default;endArrow=classic;" edge="1" parent="1" source="0Vz99gIBaLWl-0_W3tyk-14" target="0Vz99gIBaLWl-0_W3tyk-26">
          <mxGeometry relative="1" as="geometry" />
        </mxCell>
        <mxCell id="0Vz99gIBaLWl-0_W3tyk-14" value="&lt;p style=&quot;margin:0px;margin-top:4px;text-align:center;&quot;&gt;&lt;b&gt;User&lt;/b&gt;&lt;/p&gt;&lt;hr size=&quot;1&quot; style=&quot;border-style:solid;&quot;&gt;&lt;p style=&quot;margin:0px;margin-left:4px;&quot;&gt;+ Card card;&lt;/p&gt;&lt;p style=&quot;margin:0px;margin-left:4px;&quot;&gt;+ BankAccount bankAccount;&lt;/p&gt;" style="verticalAlign=top;align=left;overflow=fill;html=1;whiteSpace=wrap;strokeColor=default;fontFamily=Helvetica;fontSize=11;fontColor=default;labelBorderColor=default;labelBackgroundColor=default;fillColor=default;" vertex="1" parent="1">
          <mxGeometry x="240" y="310" width="160" height="70" as="geometry" />
        </mxCell>
        <mxCell id="0Vz99gIBaLWl-0_W3tyk-23" value="" style="edgeStyle=none;shape=connector;rounded=0;orthogonalLoop=1;jettySize=auto;html=1;strokeColor=default;align=center;verticalAlign=middle;fontFamily=Helvetica;fontSize=11;fontColor=default;labelBorderColor=default;labelBackgroundColor=default;endArrow=classic;" edge="1" parent="1" source="0Vz99gIBaLWl-0_W3tyk-16" target="0Vz99gIBaLWl-0_W3tyk-14">
          <mxGeometry relative="1" as="geometry" />
        </mxCell>
        <mxCell id="0Vz99gIBaLWl-0_W3tyk-24" value="" style="edgeStyle=none;shape=connector;rounded=0;orthogonalLoop=1;jettySize=auto;html=1;strokeColor=default;align=center;verticalAlign=middle;fontFamily=Helvetica;fontSize=11;fontColor=default;labelBorderColor=default;labelBackgroundColor=default;endArrow=classic;" edge="1" parent="1" source="0Vz99gIBaLWl-0_W3tyk-16" target="0Vz99gIBaLWl-0_W3tyk-17">
          <mxGeometry relative="1" as="geometry" />
        </mxCell>
        <mxCell id="0Vz99gIBaLWl-0_W3tyk-16" value="&lt;p style=&quot;margin:0px;margin-top:4px;text-align:center;&quot;&gt;&lt;b&gt;BankAccount&lt;/b&gt;&lt;/p&gt;&lt;hr size=&quot;1&quot; style=&quot;border-style:solid;&quot;&gt;&lt;p style=&quot;margin:0px;margin-left:4px;&quot;&gt;+ int balance;&lt;/p&gt;&lt;hr size=&quot;1&quot; style=&quot;border-style:solid;&quot;&gt;&lt;p style=&quot;margin:0px;margin-left:4px;&quot;&gt;+ withdrawAmount(int amount)&lt;/p&gt;" style="verticalAlign=top;align=left;overflow=fill;html=1;whiteSpace=wrap;strokeColor=default;fontFamily=Helvetica;fontSize=11;fontColor=default;labelBorderColor=default;labelBackgroundColor=default;fillColor=default;" vertex="1" parent="1">
          <mxGeometry x="240" y="440" width="180" height="80" as="geometry" />
        </mxCell>
        <mxCell id="0Vz99gIBaLWl-0_W3tyk-22" style="edgeStyle=none;shape=connector;rounded=0;orthogonalLoop=1;jettySize=auto;html=1;entryX=0;entryY=0.5;entryDx=0;entryDy=0;strokeColor=default;align=center;verticalAlign=middle;fontFamily=Helvetica;fontSize=11;fontColor=default;labelBorderColor=default;labelBackgroundColor=default;endArrow=classic;" edge="1" parent="1" source="0Vz99gIBaLWl-0_W3tyk-17" target="0Vz99gIBaLWl-0_W3tyk-14">
          <mxGeometry relative="1" as="geometry" />
        </mxCell>
        <mxCell id="0Vz99gIBaLWl-0_W3tyk-17" value="&lt;p style=&quot;margin:0px;margin-top:4px;text-align:center;&quot;&gt;&lt;b&gt;Card&lt;/b&gt;&lt;/p&gt;&lt;hr size=&quot;1&quot; style=&quot;border-style:solid;&quot;&gt;&lt;p style=&quot;margin:0px;margin-left:4px;&quot;&gt;+ int cvv;&lt;/p&gt;&lt;p style=&quot;margin:0px;margin-left:4px;&quot;&gt;+ Date expiryDate;&lt;/p&gt;&lt;p style=&quot;margin:0px;margin-left:4px;&quot;&gt;+ BankAccount bankAccount;&lt;/p&gt;" style="verticalAlign=top;align=left;overflow=fill;html=1;whiteSpace=wrap;strokeColor=default;fontFamily=Helvetica;fontSize=11;fontColor=default;labelBorderColor=default;labelBackgroundColor=default;fillColor=default;" vertex="1" parent="1">
          <mxGeometry x="20" y="375" width="160" height="80" as="geometry" />
        </mxCell>
        <mxCell id="0Vz99gIBaLWl-0_W3tyk-25" style="edgeStyle=none;shape=connector;rounded=0;orthogonalLoop=1;jettySize=auto;html=1;entryX=0.939;entryY=0.986;entryDx=0;entryDy=0;entryPerimeter=0;strokeColor=default;align=center;verticalAlign=middle;fontFamily=Helvetica;fontSize=11;fontColor=default;labelBorderColor=default;labelBackgroundColor=default;endArrow=classic;" edge="1" parent="1" source="0Vz99gIBaLWl-0_W3tyk-2" target="0Vz99gIBaLWl-0_W3tyk-13">
          <mxGeometry relative="1" as="geometry" />
        </mxCell>
        <mxCell id="0Vz99gIBaLWl-0_W3tyk-26" value="&lt;p style=&quot;margin:0px;margin-top:4px;text-align:center;&quot;&gt;&lt;b&gt;ATMRoom&lt;/b&gt;&lt;/p&gt;&lt;hr size=&quot;1&quot; style=&quot;border-style:solid;&quot;&gt;&lt;p style=&quot;margin:0px;margin-left:4px;&quot;&gt;+ ATM atm;&lt;/p&gt;&lt;p style=&quot;margin:0px;margin-left:4px;&quot;&gt;+ User user;&lt;/p&gt;" style="verticalAlign=top;align=left;overflow=fill;html=1;whiteSpace=wrap;strokeColor=default;fontFamily=Helvetica;fontSize=11;fontColor=default;labelBorderColor=default;labelBackgroundColor=default;fillColor=default;" vertex="1" parent="1">
          <mxGeometry x="120" y="175" width="160" height="70" as="geometry" />
        </mxCell>
        <mxCell id="0Vz99gIBaLWl-0_W3tyk-32" value="" style="edgeStyle=none;shape=connector;rounded=0;orthogonalLoop=1;jettySize=auto;html=1;strokeColor=default;align=center;verticalAlign=middle;fontFamily=Helvetica;fontSize=11;fontColor=default;labelBorderColor=default;labelBackgroundColor=default;endArrow=classic;" edge="1" parent="1" source="0Vz99gIBaLWl-0_W3tyk-31" target="0Vz99gIBaLWl-0_W3tyk-6">
          <mxGeometry relative="1" as="geometry" />
        </mxCell>
        <mxCell id="0Vz99gIBaLWl-0_W3tyk-31" value="&lt;p style=&quot;margin:0px;margin-top:4px;text-align:center;&quot;&gt;&lt;b&gt;&lt;i&gt;CashWithdrawalProcessor&lt;/i&gt;&lt;/b&gt;&lt;/p&gt;&lt;hr size=&quot;1&quot; style=&quot;border-style:solid;&quot;&gt;&lt;p style=&quot;margin:0px;margin-left:4px;&quot;&gt;+&amp;nbsp;&lt;span style=&quot;background-color: transparent; color: light-dark(rgb(0, 0, 0), rgb(255, 255, 255)); text-align: center;&quot;&gt;CashWithdrawalProcessor&lt;/span&gt;&lt;b style=&quot;background-color: transparent; color: light-dark(rgb(0, 0, 0), rgb(255, 255, 255)); text-align: center;&quot;&gt;&amp;nbsp;&lt;/b&gt;&lt;span style=&quot;background-color: transparent; color: light-dark(rgb(0, 0, 0), rgb(255, 255, 255)); text-align: center;&quot;&gt;nextProcessor;&lt;/span&gt;&lt;/p&gt;&lt;hr size=&quot;1&quot; style=&quot;border-style:solid;&quot;&gt;&lt;p style=&quot;margin:0px;margin-left:4px;&quot;&gt;&lt;span style=&quot;background-color: transparent; color: light-dark(rgb(0, 0, 0), rgb(255, 255, 255));&quot;&gt;+ withdraw(ATM atm, int remainingAmount)&lt;/span&gt;&lt;/p&gt;" style="verticalAlign=top;align=left;overflow=fill;html=1;whiteSpace=wrap;" vertex="1" parent="1">
          <mxGeometry x="550" y="720" width="260" height="80" as="geometry" />
        </mxCell>
        <mxCell id="0Vz99gIBaLWl-0_W3tyk-36" style="edgeStyle=none;shape=connector;rounded=0;orthogonalLoop=1;jettySize=auto;html=1;strokeColor=default;align=center;verticalAlign=middle;fontFamily=Helvetica;fontSize=11;fontColor=default;labelBorderColor=default;labelBackgroundColor=default;endArrow=block;endFill=0;" edge="1" parent="1" source="0Vz99gIBaLWl-0_W3tyk-33" target="0Vz99gIBaLWl-0_W3tyk-31">
          <mxGeometry relative="1" as="geometry" />
        </mxCell>
        <mxCell id="0Vz99gIBaLWl-0_W3tyk-33" value="&lt;p style=&quot;margin:0px;margin-top:4px;text-align:center;&quot;&gt;&lt;b&gt;TwoThousandWithdrawalProcessor&lt;/b&gt;&lt;/p&gt;&lt;hr size=&quot;1&quot; style=&quot;border-style:solid;&quot;&gt;&lt;p style=&quot;margin:0px;margin-left:4px;&quot;&gt;&lt;br&gt;&lt;/p&gt;&lt;hr size=&quot;1&quot; style=&quot;border-style:solid;&quot;&gt;&lt;p style=&quot;margin:0px;margin-left:4px;&quot;&gt;&lt;span style=&quot;background-color: transparent; color: light-dark(rgb(0, 0, 0), rgb(255, 255, 255));&quot;&gt;+ withdraw(ATM atm, int remainingAmount)&lt;/span&gt;&lt;/p&gt;" style="verticalAlign=top;align=left;overflow=fill;html=1;whiteSpace=wrap;" vertex="1" parent="1">
          <mxGeometry x="245" y="830" width="260" height="80" as="geometry" />
        </mxCell>
        <mxCell id="0Vz99gIBaLWl-0_W3tyk-38" value="" style="edgeStyle=none;shape=connector;rounded=0;orthogonalLoop=1;jettySize=auto;html=1;strokeColor=default;align=center;verticalAlign=middle;fontFamily=Helvetica;fontSize=11;fontColor=default;labelBorderColor=default;labelBackgroundColor=default;endArrow=block;endFill=0;" edge="1" parent="1" source="0Vz99gIBaLWl-0_W3tyk-34" target="0Vz99gIBaLWl-0_W3tyk-31">
          <mxGeometry relative="1" as="geometry" />
        </mxCell>
        <mxCell id="0Vz99gIBaLWl-0_W3tyk-34" value="&lt;p style=&quot;margin:0px;margin-top:4px;text-align:center;&quot;&gt;&lt;b&gt;FiveHundredWithdrawalProcessor&lt;/b&gt;&lt;/p&gt;&lt;hr size=&quot;1&quot; style=&quot;border-style:solid;&quot;&gt;&lt;p style=&quot;margin:0px;margin-left:4px;&quot;&gt;&lt;br&gt;&lt;/p&gt;&lt;hr size=&quot;1&quot; style=&quot;border-style:solid;&quot;&gt;&lt;p style=&quot;margin:0px;margin-left:4px;&quot;&gt;&lt;span style=&quot;background-color: transparent; color: light-dark(rgb(0, 0, 0), rgb(255, 255, 255));&quot;&gt;+ withdraw(ATM atm, int remainingAmount)&lt;/span&gt;&lt;/p&gt;" style="verticalAlign=top;align=left;overflow=fill;html=1;whiteSpace=wrap;" vertex="1" parent="1">
          <mxGeometry x="550" y="830" width="250" height="80" as="geometry" />
        </mxCell>
        <mxCell id="0Vz99gIBaLWl-0_W3tyk-39" style="edgeStyle=none;shape=connector;rounded=0;orthogonalLoop=1;jettySize=auto;html=1;entryX=1;entryY=1;entryDx=0;entryDy=0;strokeColor=default;align=center;verticalAlign=middle;fontFamily=Helvetica;fontSize=11;fontColor=default;labelBorderColor=default;labelBackgroundColor=default;endArrow=block;endFill=0;" edge="1" parent="1" source="0Vz99gIBaLWl-0_W3tyk-35" target="0Vz99gIBaLWl-0_W3tyk-31">
          <mxGeometry relative="1" as="geometry" />
        </mxCell>
        <mxCell id="0Vz99gIBaLWl-0_W3tyk-35" value="&lt;p style=&quot;margin:0px;margin-top:4px;text-align:center;&quot;&gt;&lt;b&gt;OneHundredWithdrawalProcessor&lt;/b&gt;&lt;/p&gt;&lt;hr size=&quot;1&quot; style=&quot;border-style:solid;&quot;&gt;&lt;p style=&quot;margin:0px;margin-left:4px;&quot;&gt;&lt;br&gt;&lt;/p&gt;&lt;hr size=&quot;1&quot; style=&quot;border-style:solid;&quot;&gt;&lt;p style=&quot;margin:0px;margin-left:4px;&quot;&gt;&lt;span style=&quot;background-color: transparent; color: light-dark(rgb(0, 0, 0), rgb(255, 255, 255));&quot;&gt;+ withdraw(ATM atm, int remainingAmount)&lt;/span&gt;&lt;/p&gt;" style="verticalAlign=top;align=left;overflow=fill;html=1;whiteSpace=wrap;" vertex="1" parent="1">
          <mxGeometry x="830" y="830" width="250" height="80" as="geometry" />
        </mxCell>
        <mxCell id="0Vz99gIBaLWl-0_W3tyk-42" style="edgeStyle=none;shape=connector;rounded=0;orthogonalLoop=1;jettySize=auto;html=1;strokeColor=default;align=center;verticalAlign=middle;fontFamily=Helvetica;fontSize=11;fontColor=default;labelBorderColor=default;labelBackgroundColor=default;endArrow=classic;exitX=0.791;exitY=-0.006;exitDx=0;exitDy=0;exitPerimeter=0;" edge="1" parent="1" source="0Vz99gIBaLWl-0_W3tyk-31" target="0Vz99gIBaLWl-0_W3tyk-31">
          <mxGeometry relative="1" as="geometry">
            <Array as="points">
              <mxPoint x="756" y="700" />
              <mxPoint x="840" y="700" />
              <mxPoint x="840" y="760" />
            </Array>
          </mxGeometry>
        </mxCell>
        <mxCell id="0Vz99gIBaLWl-0_W3tyk-49" style="edgeStyle=none;shape=connector;rounded=0;orthogonalLoop=1;jettySize=auto;html=1;strokeColor=default;align=center;verticalAlign=middle;fontFamily=Helvetica;fontSize=12;fontColor=default;labelBorderColor=none;labelBackgroundColor=default;endArrow=classic;" edge="1" parent="1" source="0Vz99gIBaLWl-0_W3tyk-44" target="0Vz99gIBaLWl-0_W3tyk-45">
          <mxGeometry relative="1" as="geometry" />
        </mxCell>
        <mxCell id="0Vz99gIBaLWl-0_W3tyk-50" value="Insert Card" style="edgeLabel;html=1;align=center;verticalAlign=middle;resizable=0;points=[];strokeColor=default;fontFamily=Helvetica;fontSize=12;fontColor=default;labelBorderColor=none;labelBackgroundColor=default;fillColor=default;" vertex="1" connectable="0" parent="0Vz99gIBaLWl-0_W3tyk-49">
          <mxGeometry x="-0.0591" y="-4" relative="1" as="geometry">
            <mxPoint as="offset" />
          </mxGeometry>
        </mxCell>
        <mxCell id="0Vz99gIBaLWl-0_W3tyk-44" value="&lt;font style=&quot;font-size: 13px;&quot;&gt;Idle State&lt;/font&gt;" style="ellipse;whiteSpace=wrap;html=1;strokeColor=default;align=center;verticalAlign=middle;fontFamily=Helvetica;fontSize=12;fontColor=default;labelBorderColor=none;labelBackgroundColor=default;fillColor=default;" vertex="1" parent="1">
          <mxGeometry x="160" y="-210" width="120" height="70" as="geometry" />
        </mxCell>
        <mxCell id="0Vz99gIBaLWl-0_W3tyk-51" style="edgeStyle=none;shape=connector;rounded=0;orthogonalLoop=1;jettySize=auto;html=1;strokeColor=default;align=center;verticalAlign=middle;fontFamily=Helvetica;fontSize=12;fontColor=default;labelBorderColor=none;labelBackgroundColor=default;endArrow=classic;" edge="1" parent="1" source="0Vz99gIBaLWl-0_W3tyk-45" target="0Vz99gIBaLWl-0_W3tyk-46">
          <mxGeometry relative="1" as="geometry" />
        </mxCell>
        <mxCell id="0Vz99gIBaLWl-0_W3tyk-52" value="AuthenticatePin" style="edgeLabel;html=1;align=center;verticalAlign=middle;resizable=0;points=[];strokeColor=default;fontFamily=Helvetica;fontSize=12;fontColor=default;labelBorderColor=none;labelBackgroundColor=default;fillColor=default;" vertex="1" connectable="0" parent="0Vz99gIBaLWl-0_W3tyk-51">
          <mxGeometry x="-0.0209" y="-1" relative="1" as="geometry">
            <mxPoint as="offset" />
          </mxGeometry>
        </mxCell>
        <mxCell id="0Vz99gIBaLWl-0_W3tyk-45" value="&lt;font style=&quot;font-size: 13px;&quot;&gt;Has Card State&lt;/font&gt;" style="ellipse;whiteSpace=wrap;html=1;strokeColor=default;align=center;verticalAlign=middle;fontFamily=Helvetica;fontSize=12;fontColor=default;labelBorderColor=none;labelBackgroundColor=default;fillColor=default;" vertex="1" parent="1">
          <mxGeometry x="350" y="-300" width="140" height="70" as="geometry" />
        </mxCell>
        <mxCell id="0Vz99gIBaLWl-0_W3tyk-53" style="edgeStyle=none;shape=connector;rounded=0;orthogonalLoop=1;jettySize=auto;html=1;strokeColor=default;align=center;verticalAlign=middle;fontFamily=Helvetica;fontSize=12;fontColor=default;labelBorderColor=none;labelBackgroundColor=default;endArrow=classic;" edge="1" parent="1" source="0Vz99gIBaLWl-0_W3tyk-46" target="0Vz99gIBaLWl-0_W3tyk-47">
          <mxGeometry relative="1" as="geometry" />
        </mxCell>
        <mxCell id="0Vz99gIBaLWl-0_W3tyk-54" value="Selected Cash&amp;nbsp;&lt;div&gt;Withdrawal&lt;/div&gt;" style="edgeLabel;html=1;align=center;verticalAlign=middle;resizable=0;points=[];strokeColor=default;fontFamily=Helvetica;fontSize=12;fontColor=default;labelBorderColor=none;labelBackgroundColor=default;fillColor=default;" vertex="1" connectable="0" parent="0Vz99gIBaLWl-0_W3tyk-53">
          <mxGeometry x="-0.0703" y="4" relative="1" as="geometry">
            <mxPoint as="offset" />
          </mxGeometry>
        </mxCell>
        <mxCell id="0Vz99gIBaLWl-0_W3tyk-46" value="&lt;font style=&quot;font-size: 13px;&quot;&gt;Select Operation State&lt;/font&gt;" style="ellipse;whiteSpace=wrap;html=1;strokeColor=default;align=center;verticalAlign=middle;fontFamily=Helvetica;fontSize=12;fontColor=default;labelBorderColor=none;labelBackgroundColor=default;fillColor=default;" vertex="1" parent="1">
          <mxGeometry x="550" y="-200" width="140" height="70" as="geometry" />
        </mxCell>
        <mxCell id="0Vz99gIBaLWl-0_W3tyk-57" style="edgeStyle=none;shape=connector;rounded=0;orthogonalLoop=1;jettySize=auto;html=1;strokeColor=default;align=center;verticalAlign=middle;fontFamily=Helvetica;fontSize=12;fontColor=default;labelBorderColor=none;labelBackgroundColor=default;endArrow=classic;" edge="1" parent="1" source="0Vz99gIBaLWl-0_W3tyk-47" target="0Vz99gIBaLWl-0_W3tyk-44">
          <mxGeometry relative="1" as="geometry" />
        </mxCell>
        <mxCell id="0Vz99gIBaLWl-0_W3tyk-61" value="Return/Exit" style="edgeLabel;html=1;align=center;verticalAlign=middle;resizable=0;points=[];strokeColor=default;fontFamily=Helvetica;fontSize=12;fontColor=default;labelBorderColor=none;labelBackgroundColor=default;fillColor=default;" vertex="1" connectable="0" parent="0Vz99gIBaLWl-0_W3tyk-57">
          <mxGeometry x="0.1391" y="1" relative="1" as="geometry">
            <mxPoint as="offset" />
          </mxGeometry>
        </mxCell>
        <mxCell id="0Vz99gIBaLWl-0_W3tyk-47" value="&lt;font style=&quot;font-size: 13px;&quot;&gt;Cash Withdrawal State&lt;/font&gt;" style="ellipse;whiteSpace=wrap;html=1;strokeColor=default;align=center;verticalAlign=middle;fontFamily=Helvetica;fontSize=12;fontColor=default;labelBorderColor=none;labelBackgroundColor=default;fillColor=default;" vertex="1" parent="1">
          <mxGeometry x="540" y="-20" width="140" height="70" as="geometry" />
        </mxCell>
        <mxCell id="0Vz99gIBaLWl-0_W3tyk-48" value="&lt;font style=&quot;font-size: 13px;&quot;&gt;Check Balance State&lt;/font&gt;" style="ellipse;whiteSpace=wrap;html=1;strokeColor=default;align=center;verticalAlign=middle;fontFamily=Helvetica;fontSize=12;fontColor=default;labelBorderColor=none;labelBackgroundColor=default;fillColor=default;" vertex="1" parent="1">
          <mxGeometry x="300" y="-10" width="140" height="70" as="geometry" />
        </mxCell>
        <mxCell id="0Vz99gIBaLWl-0_W3tyk-55" style="edgeStyle=none;shape=connector;rounded=0;orthogonalLoop=1;jettySize=auto;html=1;exitX=0;exitY=1;exitDx=0;exitDy=0;entryX=0.737;entryY=0.055;entryDx=0;entryDy=0;entryPerimeter=0;strokeColor=default;align=center;verticalAlign=middle;fontFamily=Helvetica;fontSize=12;fontColor=default;labelBorderColor=none;labelBackgroundColor=default;endArrow=classic;" edge="1" parent="1" source="0Vz99gIBaLWl-0_W3tyk-46" target="0Vz99gIBaLWl-0_W3tyk-48">
          <mxGeometry relative="1" as="geometry" />
        </mxCell>
        <mxCell id="0Vz99gIBaLWl-0_W3tyk-56" value="Selected Check&amp;nbsp;&lt;div&gt;Balance&lt;/div&gt;" style="edgeLabel;html=1;align=center;verticalAlign=middle;resizable=0;points=[];strokeColor=default;fontFamily=Helvetica;fontSize=12;fontColor=default;labelBorderColor=none;labelBackgroundColor=default;fillColor=default;" vertex="1" connectable="0" parent="0Vz99gIBaLWl-0_W3tyk-55">
          <mxGeometry x="0.0601" y="2" relative="1" as="geometry">
            <mxPoint x="42" y="-42" as="offset" />
          </mxGeometry>
        </mxCell>
        <mxCell id="0Vz99gIBaLWl-0_W3tyk-58" style="edgeStyle=none;shape=connector;rounded=0;orthogonalLoop=1;jettySize=auto;html=1;entryX=0.767;entryY=0.895;entryDx=0;entryDy=0;entryPerimeter=0;strokeColor=default;align=center;verticalAlign=middle;fontFamily=Helvetica;fontSize=12;fontColor=default;labelBorderColor=none;labelBackgroundColor=default;endArrow=classic;" edge="1" parent="1" source="0Vz99gIBaLWl-0_W3tyk-48" target="0Vz99gIBaLWl-0_W3tyk-44">
          <mxGeometry relative="1" as="geometry" />
        </mxCell>
        <mxCell id="0Vz99gIBaLWl-0_W3tyk-62" value="Return/Exit" style="edgeLabel;html=1;align=center;verticalAlign=middle;resizable=0;points=[];strokeColor=default;fontFamily=Helvetica;fontSize=12;fontColor=default;labelBorderColor=none;labelBackgroundColor=default;fillColor=default;" vertex="1" connectable="0" parent="0Vz99gIBaLWl-0_W3tyk-58">
          <mxGeometry x="-0.0848" y="-1" relative="1" as="geometry">
            <mxPoint as="offset" />
          </mxGeometry>
        </mxCell>
        <mxCell id="0Vz99gIBaLWl-0_W3tyk-59" style="edgeStyle=none;shape=connector;rounded=0;orthogonalLoop=1;jettySize=auto;html=1;entryX=0.954;entryY=0.627;entryDx=0;entryDy=0;entryPerimeter=0;strokeColor=default;align=center;verticalAlign=middle;fontFamily=Helvetica;fontSize=12;fontColor=default;labelBorderColor=none;labelBackgroundColor=default;endArrow=classic;" edge="1" parent="1" source="0Vz99gIBaLWl-0_W3tyk-46" target="0Vz99gIBaLWl-0_W3tyk-44">
          <mxGeometry relative="1" as="geometry" />
        </mxCell>
        <mxCell id="0Vz99gIBaLWl-0_W3tyk-60" value="Return/Exit" style="edgeLabel;html=1;align=center;verticalAlign=middle;resizable=0;points=[];strokeColor=default;fontFamily=Helvetica;fontSize=12;fontColor=default;labelBorderColor=none;labelBackgroundColor=default;fillColor=default;" vertex="1" connectable="0" parent="0Vz99gIBaLWl-0_W3tyk-59">
          <mxGeometry x="0.0291" y="-3" relative="1" as="geometry">
            <mxPoint x="-1" as="offset" />
          </mxGeometry>
        </mxCell>
      </root>
    </mxGraphModel>
  </diagram>
</mxfile>
